<?xml version="1.0" standalone="no"?>
<!DOCTYPE svg PUBLIC "-//W3C//DTD SVG 20010904//EN"
 "http://www.w3.org/TR/2001/REC-SVG-20010904/DTD/svg10.dtd">
<svg version="1.0" xmlns="http://www.w3.org/2000/svg"
 width="364.000000pt" height="138.000000pt" viewBox="0 0 364.000000 138.000000"
 preserveAspectRatio="xMidYMid meet">

<g transform="translate(0.000000,138.000000) scale(0.100000,-0.100000)"
fill="#000000" stroke="none">
<path d="M1143 1153 l-113 -4 0 -180 c0 -105 -4 -188 -10 -200 -28 -52 -120
-62 -166 -18 -24 22 -24 26 -24 211 l0 188 -370 0 -370 0 0 -90 0 -90 95 0 95
0 0 -205 0 -206 118 3 117 3 3 203 2 202 50 0 50 0 0 -133 c0 -125 1 -134 25
-169 31 -46 91 -82 169 -102 47 -13 94 -14 242 -9 l184 6 0 183 c0 100 3 190
6 199 9 23 57 45 99 45 27 0 44 -8 66 -29 l29 -29 0 -186 0 -186 105 0 105 0
0 189 0 189 31 26 c44 37 101 36 140 -3 l29 -29 0 -185 0 -185 133 -7 c262
-14 297 -12 359 18 66 32 130 95 161 157 32 65 31 176 -2 244 -33 66 -91 122
-160 155 -48 22 -69 26 -151 26 -82 0 -103 -4 -152 -27 l-58 -27 -57 27 c-52
24 -69 27 -173 27 -94 0 -123 -4 -159 -20 l-44 -20 -66 22 c-69 23 -66 23
-338 16z m323 -39 c27 -9 54 -21 60 -25 7 -6 31 0 60 13 66 30 209 37 285 14
83 -25 87 -29 55 -66 -15 -18 -34 -46 -42 -62 l-16 -30 -21 20 c-51 46 -104
54 -163 26 -58 -28 -64 -52 -64 -244 l0 -170 -75 0 -75 0 0 168 c0 185 -5 203
-59 239 -39 27 -93 30 -135 8 -15 -8 -30 -15 -32 -15 -7 0 -4 126 3 133 13 14
170 7 219 -9z m865 -12 c58 -28 112 -80 141 -135 31 -59 32 -175 1 -232 -27
-51 -86 -107 -143 -136 -54 -27 -165 -37 -227 -20 l-43 12 0 84 0 84 36 -24
c43 -29 127 -34 174 -10 121 62 95 229 -41 265 -49 14 -87 6 -134 -25 l-35
-24 0 27 c0 15 -11 46 -24 69 -19 33 -22 44 -12 53 55 45 226 52 307 12z
m-1711 -42 l0 -60 -65 0 -65 0 0 -205 0 -206 -92 3 -93 3 -3 203 -2 202 -90 0
-90 0 0 60 0 60 250 0 250 0 0 -60z m180 0 l0 -61 -77 3 -78 3 -3 58 -3 57 81
0 80 0 0 -60z m314 38 c-16 -12 -35 -26 -41 -31 -10 -7 -13 -2 -13 22 0 30 2
31 41 31 l42 0 -29 -22z m96 -178 c0 -150 -3 -197 -15 -220 -17 -32 -66 -73
-108 -89 l-27 -11 0 201 c0 172 2 203 17 226 18 28 98 83 120 83 10 0 13 -41
13 -190z m799 106 c20 -32 21 -46 19 -228 l-3 -193 -49 45 c-85 78 -118 192
-83 287 15 39 73 123 86 123 5 0 19 -15 30 -34z m-1209 -156 c0 -117 10 -140
73 -165 45 -18 96 -14 135 11 l22 14 0 -69 c0 -79 -2 -81 -106 -81 -111 0
-228 51 -262 114 -16 32 -31 229 -18 261 4 12 23 15 81 15 l75 0 0 -100z
m1445 86 c38 -16 75 -68 75 -104 0 -67 -84 -131 -153 -116 -125 27 -143 176
-27 223 36 14 66 13 105 -3z m-280 -339 l30 -26 -57 -1 -58 0 0 61 0 62 28
-35 c15 -19 41 -47 57 -61z m-755 8 c0 -34 -1 -35 -42 -35 l-41 0 39 35 c21
19 40 34 42 35 1 0 2 -16 2 -35z"/>
<path d="M3073 1146 c-84 -38 -96 -164 -21 -218 42 -29 117 -30 156 -2 15 12
34 40 42 62 28 80 -22 158 -106 168 -22 2 -53 -2 -71 -10z m99 -73 c39 -35 11
-103 -43 -103 -29 0 -59 31 -59 60 0 50 64 78 102 43z"/>
<path d="M2640 1030 l0 -120 78 0 77 0 0 30 c0 29 -2 30 -42 30 l-43 0 0 90 0
90 -35 0 -35 0 0 -120z"/>
<path d="M2809 1075 c31 -56 41 -85 41 -120 0 -45 0 -45 35 -45 35 0 35 0 35
45 0 32 10 66 35 115 19 38 35 72 35 75 0 3 -16 5 -35 5 -30 0 -37 -5 -54 -37
l-19 -38 -16 38 c-15 34 -19 37 -57 37 l-41 0 41 -75z"/>
<path d="M3300 1030 l0 -120 34 0 33 0 -1 67 c-1 40 1 61 6 52 5 -8 22 -38 39
-66 29 -52 31 -53 74 -53 l45 0 0 120 0 120 -35 0 -34 0 -3 -67 -3 -68 -35 68
c-34 67 -34 67 -77 67 l-43 0 0 -120z"/>
<path d="M355 470 c-44 -10 -71 -26 -94 -59 -24 -33 -27 -46 -8 -35 6 4 4 -2
-7 -14 -37 -43 1 -144 66 -178 47 -24 140 -15 174 17 94 86 59 240 -61 267
-22 4 -53 5 -70 2z m63 -52 c-2 -7 5 -12 15 -12 13 1 15 -2 8 -10 -7 -8 -3
-24 14 -52 28 -45 30 -54 12 -54 -7 0 -23 21 -36 47 l-22 47 -24 -30 c-22 -26
-24 -27 -25 -9 0 21 25 64 44 77 15 10 16 10 14 -4z m82 -44 c0 -8 -19 -13
-24 -6 -3 5 1 9 9 9 8 0 15 -2 15 -3z m-149 -44 c13 -8 25 -7 40 0 26 14 36 6
18 -16 -9 -11 -24 -14 -47 -12 -29 4 -37 0 -52 -25 -25 -40 -37 -15 -14 29 20
37 25 39 55 24z m141 -68 c4 -15 -5 -17 -84 -14 -74 3 -88 6 -88 20 0 15 11
17 84 14 69 -3 85 -7 88 -20z"/>
<path d="M1593 325 c0 -38 2 -53 4 -32 2 20 2 52 0 70 -2 17 -4 1 -4 -38z"/>
<path d="M2191 374 c0 -11 3 -14 6 -6 3 7 2 16 -1 19 -3 4 -6 -2 -5 -13z"/>
<path d="M657 373 c-4 -3 -7 -11 -7 -17 0 -6 4 -5 9 2 6 10 11 5 20 -19 15
-43 15 -42 -19 -37 -25 4 -31 0 -39 -24 -6 -18 -7 -26 -1 -23 6 4 10 13 10 21
0 9 11 14 35 14 24 0 35 -5 35 -14 0 -8 4 -17 10 -21 10 -6 -26 105 -38 117
-5 5 -11 5 -15 1z"/>
<path d="M1482 313 c0 -37 3 -53 5 -35 3 19 10 32 19 32 8 0 14 -3 14 -7 0 -5
10 -19 21 -33 l21 -25 -17 28 c-16 27 -16 30 1 48 24 27 8 53 -35 57 l-31 3 2
-68z m63 32 c0 -14 -8 -21 -27 -23 -24 -3 -28 0 -28 23 0 23 4 26 28 23 19 -2
27 -9 27 -23z"/>
<path d="M2100 369 c0 -5 5 -7 10 -4 6 3 10 8 10 11 0 2 -4 4 -10 4 -5 0 -10
-5 -10 -11z"/>
<path d="M2193 300 c0 -30 2 -43 4 -27 2 15 2 39 0 55 -2 15 -4 2 -4 -28z"/>
<path d="M803 295 c0 -27 2 -38 4 -22 2 15 2 37 0 50 -2 12 -4 0 -4 -28z"/>
<path d="M896 325 c-9 -26 -7 -32 5 -12 6 10 9 21 6 23 -2 3 -7 -2 -11 -11z"/>
<path d="M933 325 c-3 -9 -3 -18 -1 -21 3 -3 8 4 11 16 6 23 -1 27 -10 5z"/>
<path d="M989 327 c6 -8 8 -17 4 -20 -3 -4 -1 -7 5 -7 14 0 14 2 6 24 -3 9
-11 16 -16 16 -7 0 -6 -5 1 -13z"/>
<path d="M1036 328 c3 -5 10 -6 15 -3 13 9 11 12 -6 12 -8 0 -12 -4 -9 -9z"/>
<path d="M1161 324 c0 -11 3 -14 6 -6 3 7 2 16 -1 19 -3 4 -6 -2 -5 -13z"/>
<path d="M1270 292 l5 -47 3 39 c2 21 0 42 -5 47 -4 4 -6 -13 -3 -39z"/>
<path d="M1313 325 c-3 -9 -3 -18 -1 -21 3 -3 8 4 11 16 6 23 -1 27 -10 5z"/>
<path d="M1648 303 c5 -59 10 -63 11 -10 1 26 -3 47 -7 47 -4 0 -6 -17 -4 -37z"/>
<path d="M1694 326 c-17 -43 20 -91 53 -70 9 6 19 17 21 25 2 8 -2 6 -10 -5
-8 -10 -23 -16 -34 -14 -15 3 -19 12 -19 41 0 40 -3 45 -11 23z"/>
<path d="M1756 327 c3 -10 9 -15 12 -12 3 3 0 11 -7 18 -10 9 -11 8 -5 -6z"/>
<path d="M1803 295 c0 -27 2 -38 4 -22 2 15 2 37 0 50 -2 12 -4 0 -4 -28z"/>
<path d="M1904 315 c-4 -14 -4 -29 0 -32 3 -4 6 3 6 13 0 11 5 25 12 32 9 9 9
12 0 12 -6 0 -14 -11 -18 -25z"/>
<path d="M1967 319 c4 -13 8 -18 11 -10 2 7 -1 18 -6 23 -8 8 -9 4 -5 -13z"/>
<path d="M2230 280 c0 -35 3 -60 6 -57 8 7 7 108 -1 115 -3 3 -5 -23 -5 -58z"/>
<path d="M2298 304 c4 -28 0 -35 -19 -43 -14 -6 -18 -10 -8 -10 8 -1 20 4 27
11 13 13 16 64 4 72 -4 2 -6 -11 -4 -30z"/>
<path d="M2440 326 c0 -8 4 -17 9 -20 5 -4 7 3 4 14 -6 23 -13 26 -13 6z"/>
<path d="M843 317 c4 -11 10 -30 13 -43 3 -13 10 -24 15 -24 4 0 1 17 -8 38
-16 38 -31 61 -20 29z"/>
<path d="M2134 318 c4 -14 0 -18 -19 -18 -14 0 -25 6 -25 13 -1 6 -7 -3 -16
-22 -8 -19 -12 -36 -10 -38 2 -3 7 5 11 16 9 30 62 29 75 -1 6 -17 9 -18 9 -6
1 9 -4 20 -9 23 -6 4 -8 10 -6 14 3 4 0 13 -6 21 -8 12 -9 12 -4 -2z"/>
<path d="M1093 296 c1 -17 9 -31 17 -33 10 -3 11 -2 4 4 -7 4 -14 19 -17 33
-4 22 -5 21 -4 -4z"/>
<path d="M1032 280 c0 -19 2 -27 5 -17 2 9 2 25 0 35 -3 9 -5 1 -5 -18z"/>
<path d="M2480 293 c5 -2 10 -12 10 -20 0 -11 -7 -14 -26 -10 -16 3 -22 1 -16
-5 16 -16 47 -5 47 16 0 11 -6 20 -13 22 -7 1 -8 0 -2 -3z"/>
<path d="M930 284 c0 -26 51 -46 64 -25 4 5 -4 7 -15 4 -15 -4 -27 0 -35 12
-8 11 -14 14 -14 9z"/>
<path d="M743 270 c2 -8 12 -16 23 -17 13 -2 15 -1 4 4 -8 3 -19 11 -23 17 -6
7 -7 6 -4 -4z"/>
<path d="M1310 271 c0 -15 49 -26 62 -13 8 8 5 9 -11 5 -11 -3 -28 0 -36 7
-10 8 -15 9 -15 1z"/>
<path d="M2380 260 c-23 -7 -23 -8 -3 -9 12 -1 25 4 28 9 3 6 5 10 3 9 -2 -1
-14 -5 -28 -9z"/>
<path d="M1938 253 c7 -3 16 -2 19 1 4 3 -2 6 -13 5 -11 0 -14 -3 -6 -6z"/>
<path d="M1152 234 c-7 -8 -8 -14 -3 -14 10 0 25 19 20 25 -2 1 -10 -3 -17
-11z"/>
</g>
</svg>
